<svg width="120" height="120" fill="none" xmlns="http://www.w3.org/2000/svg"><path d="M0 8a8 8 0 0 1 8-8h104a8 8 0 0 1 8 8v104a8 8 0 0 1-8 8H8a8 8 0 0 1-8-8V8z" fill="#fff"/><path fill-rule="evenodd" clip-rule="evenodd" d="M112.585 61.646a.5.5 0 0 1 .505.42c1.034 6.33.32 15.407-4.552 23.335-4.886 7.951-13.919 14.685-29.4 16.351-.406.043-.771-.056-1.054-.272a1.347 1.347 0 0 1-.505-.836c-.116-.65.23-1.368 1.027-1.632 6.155-2.041 12.99-4.983 18.027-9.324 4.948-4.264 8.138-9.852 7.278-17.283-3.864-1.06-13.552.332-26.396 17.533-.392.526-1.01.721-1.545.555-.559-.174-.931-.713-.846-1.4 1.132-9.124 11.126-26.849 37.461-27.447zM81.96 18.067a.5.5 0 0 1 .61.194c2.096 3.276 5.143 10.057 7.105 18.204 1.962 8.15 2.852 17.722.578 26.561-.188.73-.8 1.1-1.41 1.07-.6-.029-1.18-.443-1.343-1.162-1.014-4.49-2.21-8.876-3.815-12.548-1.608-3.681-3.6-6.582-6.17-8.178-2.54-1.576-5.72-1.924-9.84-.338-4.143 1.594-9.207 5.137-15.428 11.314-.53.526-1.25.566-1.775.259-.535-.313-.84-.97-.576-1.69 3.6-9.836 13.378-26.095 32.064-33.686zM10.948 34.717a.5.5 0 0 1 .563-.207c38.49 11.548 44.455 38.944 40.785 50.935-.203.663-.767.996-1.342.953-.557-.042-1.075-.43-1.263-1.063-7.998-26.962-24.012-33.98-31.38-34.205-4.2 13.533-.565 23.785 6.111 31.595 6.76 7.908 16.65 13.32 24.755 17.02.742.339 1.003 1.068.833 1.692-.17.627-.77 1.119-1.587 1.008-22.154-3.006-33.746-16.541-38.68-31.01-2.464-7.224-3.27-14.68-2.91-21.181.357-6.488 1.877-12.077 4.115-15.537z" fill="#FB6D0B"/></svg>